<?xml version="1.0" encoding="UTF-8" standalone="no" ?>
<!DOCTYPE svg PUBLIC "-//W3C//DTD SVG 1.1//EN" "http://www.w3.org/Graphics/SVG/1.1/DTD/svg11.dtd">
<svg xmlns="http://www.w3.org/2000/svg" xmlns:xlink="http://www.w3.org/1999/xlink" version="1.1" width="200" height="200" viewBox="0 0 200 200" xml:space="preserve">
<desc>Created with Fabric.js 5.2.4</desc>
<defs>
</defs>
<g transform="matrix(1 0 0 1 100 100)" id="30312e57-058b-4b49-bf04-103e348cf3eb"  >
<rect style="stroke: none; stroke-width: 1; stroke-dasharray: none; stroke-linecap: butt; stroke-dashoffset: 0; stroke-linejoin: miter; stroke-miterlimit: 4; fill: rgb(255,255,255); fill-rule: nonzero; opacity: 1; visibility: hidden;" vector-effect="non-scaling-stroke"  x="-100" y="-100" rx="0" ry="0" width="200" height="200" />
</g>
<g transform="matrix(Infinity NaN NaN Infinity 0 0)" id="5a262588-3130-4e5f-a86b-27715538f1a7"  >
</g>
<g transform="matrix(1 0 0 1 100 100)" id="Selection"  >
<path style="stroke: rgb(0,0,0); stroke-width: 0; stroke-dasharray: none; stroke-linecap: butt; stroke-dashoffset: 0; stroke-linejoin: miter; stroke-miterlimit: 4; fill: rgb(0,0,0); fill-rule: nonzero; opacity: 1;" vector-effect="non-scaling-stroke"  transform=" translate(-69.52, -70.55)" d="M 135.98 91.61 C 132.12 97.58 113.6 96.96 108.01 93.95 C 97.31 88.19 96.88 78.59 97 68 C 97.12 58.12 101.08 49.56 111 46.11 C 116.06 44.35 132.52 44.05 136.01 48.7 C 137.32 50.46 137 54.81 137 57 C 129.58 54.66 124.59 49.96 116 52.65 C 102.42 56.91 101.26 78.56 112.04 86.35 C 121.02 92.84 128.82 86.58 137 84 C 136.99 86.26 137.23 89.67 135.98 91.61 Z M 14.95 57 C 17.23 50.75 17.52 44.8 25.9 46.13 C 30.94 46.94 31.9 53.94 33.42 58 C 33.42 58 46 95 46 95 C 36.65 94.96 35.67 92.8 34 82 C 34 82 14 82 14 82 C 12.33 92.8 11.35 94.96 2 95 C 2 95 14.95 57 14.95 57 Z M 67 46 C 77.3 46 89.39 46.21 85.57 61 C 84.92 63.53 83.33 65.78 82 68 C 92.78 71.76 92.66 86.73 83.96 92.44 C 77.68 96.56 61.82 95 54 95 C 54 95 54 46 54 46 C 54 46 67 46 67 46 Z M 77.67 57.06 C 76.45 51.72 65.42 52.04 61 52 C 61 52 61 66 61 66 C 66.68 65.98 79.75 66.22 77.67 57.06 Z M 17 76 C 17 76 31 76 31 76 C 31 76 24 57 24 57 C 24 57 17 76 17 76 Z M 78.77 86.55 C 82.55 84.24 83.14 77.59 79.69 74.74 C 76.49 72.1 65.27 72 61 72 C 61 72 61 89 61 89 C 64.85 88.99 75.73 88.4 78.77 86.55 Z" stroke-linecap="round" />
</g>
</svg>