<?xml version="1.0" encoding="iso-8859-1"?>
<!-- Generator: Adobe Illustrator 18.1.1, SVG Export Plug-In . SVG Version: 6.00 Build 0)  -->
<svg version="1.1" id="Capa_1" xmlns="http://www.w3.org/2000/svg" xmlns:xlink="http://www.w3.org/1999/xlink" x="0px" y="0px"
	 viewBox="0 0 31.825 31.825" style="enable-background:new 0 0 31.825 31.825;" xml:space="preserve">
<g>
	<g>
		<path style="fill:#010002;" d="M8.012,10.129l-0.24-0.938H6.854L6.745,9.613C6.663,9.934,6.578,10.28,6.49,10.632
			c-0.151,0.61-0.307,1.244-0.459,1.794l-1.402,4.477h5.44L8.64,12.424C8.406,11.693,8.197,10.861,8.012,10.129z M6.162,15.777
			l0.95-3.031c0.07-0.256,0.142-0.525,0.211-0.802c0.077,0.28,0.159,0.556,0.243,0.824l0.96,3.009H6.162z"/>
		<path style="fill:#010002;" d="M15.357,18.306h-1.939v0.44v4.563v0.989l0.459,0.087c0.413,0.075,0.898,0.075,1.569,0.075
			c2.472,0,3.948-1.153,3.948-3.089C19.394,19.453,17.884,18.306,15.357,18.306z M15.446,23.337c-0.345,0-0.648,0-0.903-0.013
			v-0.015V22.21v-2.779h0.813c1.087,0,2.91,0.252,2.91,1.94C18.267,22.995,16.733,23.337,15.446,23.337z"/>
		<path style="fill:#010002;" d="M30.381,18.145c-0.712,0.303-1.812,0.497-2.803,0.497c-3.011,0-4.738-1.792-4.738-4.917
			c0-3.15,1.78-5.031,4.76-5.031c1.256,0,2.189,0.292,2.753,0.538l0.601,0.263l0.871-3.279l-0.401-0.209
			c-0.687-0.359-2.083-0.742-3.935-0.742c-4.032,0-7.031,2.077-8.184,5.397c-0.992-0.491-2.217-0.702-4.016-0.702
			c-1.704,0-3.324,0.175-4.173,0.351l-0.412,0.084L9.595,6.979H5.233L0,23.31h4.054L5.362,19h3.976l1.327,4.157v3.134l0.493,0.062
			c1.117,0.139,2.253,0.207,3.477,0.207c2.887,0,4.803-0.488,6.031-1.537c1.071-0.93,1.637-2.17,1.637-3.583
			c0-0.215-0.016-0.425-0.045-0.628c1.313,0.827,2.955,1.28,4.847,1.28c1.974,0,3.492-0.394,4.192-0.733l0.395-0.19l-0.678-3.292
			L30.381,18.145z M10.161,17.875H4.527l-1.309,4.309H1.543L6.055,8.105h2.722l1.889,5.814v5.535L10.161,17.875z M19.931,24.169
			c-0.995,0.853-2.727,1.265-5.295,1.265c-0.996,0-1.931-0.047-2.844-0.141V23.31v-1.126v-4.797v-3.644v-2.409
			c0.844-0.13,2.153-0.247,3.498-0.247c1.726,0,2.833,0.197,3.709,0.684c-0.126,0.609-0.199,1.25-0.209,1.919
			c-0.307-0.805-1.126-1.678-3.23-1.678c-0.787,0-1.33,0.039-1.706,0.128l-0.436,0.101v5.184h1.984c1.874,0,3.172-0.81,3.487-2.112
			c0.07,0.5,0.175,0.976,0.315,1.431c-0.222,0.136-0.46,0.26-0.727,0.358l-0.368,0.138v0.895l0.425,0.109
			c1.278,0.324,2.643,1.334,2.643,3.198C21.177,22.803,20.498,23.677,19.931,24.169z M17.839,14.673
			c0,1.018-0.912,1.625-2.437,1.625h-0.858v-3.123c0.267-0.022,0.607-0.036,1.016-0.036C17.839,13.139,17.839,14.294,17.839,14.673z
			 M27.105,20.966c-3.191,0-5.506-1.412-6.559-3.832c-0.17-0.39-0.307-0.804-0.409-1.246c-0.146-0.631-0.229-1.304-0.229-2.027
			c0-0.454,0.04-0.887,0.1-1.308c0.065-0.444,0.161-0.871,0.29-1.278c0.952-2.997,3.602-4.883,7.19-4.883
			c1.318,0,2.363,0.212,3.008,0.441l-0.302,1.134c-0.65-0.212-1.525-0.399-2.594-0.399c-3.575,0-5.887,2.417-5.887,6.157
			c0,0.008,0,0.018,0,0.025c0.001,0.26,0.016,0.513,0.038,0.76c0.297,3.263,2.47,5.26,5.826,5.26c0.885,0,1.826-0.135,2.601-0.36
			l0.226,1.094C29.76,20.721,28.618,20.966,27.105,20.966z"/>
	</g>
</g>
<g>
</g>
<g>
</g>
<g>
</g>
<g>
</g>
<g>
</g>
<g>
</g>
<g>
</g>
<g>
</g>
<g>
</g>
<g>
</g>
<g>
</g>
<g>
</g>
<g>
</g>
<g>
</g>
<g>
</g>
</svg>
