<?xml version="1.0" encoding="UTF-8" standalone="no"?>
<!DOCTYPE svg PUBLIC "-//W3C//DTD SVG 20010904//EN"
              "http://www.w3.org/TR/2001/REC-SVG-20010904/DTD/svg10.dtd">

<svg xmlns="http://www.w3.org/2000/svg"
     width="1.57778in" height="1.53333in"
     viewBox="0 0 142 138">
  <path id="Selection #2"
        fill="none" stroke="black" stroke-width="1"
        d="M 142.00,0.00
           C 142.00,0.00 142.00,138.00 142.00,138.00
             142.00,138.00 0.00,138.00 0.00,138.00
             0.00,138.00 0.00,0.00 0.00,0.00
             0.00,0.00 142.00,0.00 142.00,0.00 Z
           M 114.80,76.00
           C 111.92,83.33 107.00,95.63 102.91,102.00
             100.67,105.49 96.66,111.62 92.00,111.50
             84.72,111.32 79.29,96.74 77.00,91.00
             77.00,91.00 59.58,43.00 59.58,43.00
             57.02,37.13 52.47,27.72 45.99,25.65
             32.04,21.19 23.14,43.15 18.70,53.00
             16.45,57.98 11.91,64.25 16.00,69.00
             20.59,61.58 23.97,48.41 32.04,37.00
             34.32,33.78 38.51,28.27 42.99,28.87
             49.12,29.70 54.46,41.85 56.72,47.00
             56.72,47.00 78.31,104.00 78.31,104.00
             79.56,106.27 81.79,109.94 83.52,111.79
             92.70,121.63 101.43,112.15 106.62,104.00
             108.80,100.57 112.32,92.91 114.00,89.00
             117.26,81.39 121.25,73.33 122.00,65.00
             116.76,66.79 116.70,71.17 114.80,76.00 Z" />
</svg>
